<?xml version="1.0" encoding="UTF-8"?>
<svg xmlns="http://www.w3.org/2000/svg" viewBox="0 0 1200 630" preserveAspectRatio="xMidYMid meet" width="1200" height="630">
  <defs>
<!-- Background gradients -->
    <linearGradient id="bg" x1="0%" y1="0%" x2="100%" y2="100%">
      <stop offset="0%" stop-color="#0d1117" />
      <stop offset="50%" stop-color="#161b22" />
      <stop offset="100%" stop-color="#0d1117" />
    </linearGradient>
    <radialGradient id="vignette" cx="50%" cy="50%" r="70%">
      <stop offset="50%" stop-color="#000" stop-opacity="0" />
      <stop offset="100%" stop-color="#000" stop-opacity="0.35" />
    </radialGradient>
    <linearGradient id="keyLight" x1="0%" y1="0%" x2="100%" y2="100%">
      <stop offset="0%" stop-color="#ffffff" stop-opacity="0.06" />
      <stop offset="100%" stop-color="#000000" stop-opacity="0" />
    </linearGradient>

    <!-- Patterns -->
    <pattern id="dots" x="0" y="0" width="20" height="20" patternUnits="userSpaceOnUse">
      <circle cx="2" cy="2" r="1" fill="#94a3b8" opacity="0.12" />
    </pattern>
    <pattern id="grid" x="0" y="0" width="30" height="30" patternUnits="userSpaceOnUse">
      <path d="M 30 0 L 0 0 0 30" fill="none" stroke="#94a3b8" stroke-width="0.5" opacity="0.06" />
    </pattern>
    <pattern id="scanlines" width="4" height="4" patternUnits="userSpaceOnUse">
      <line x1="0" y1="2" x2="4" y2="2" stroke="#ffffff" stroke-width="1" opacity="0.03" />
    </pattern>

    <!-- Title gradient & filters -->
    <linearGradient id="titleGrad" x1="0%" y1="0%" x2="100%" y2="0%">
      <stop offset="0%" stop-color="#e0eafc" />
      <stop offset="50%" stop-color="#b8c6db" />
      <stop offset="100%" stop-color="#94a3b8" />
    </linearGradient>
    <filter id="titleShadow" x="-5%" y="-5%" width="110%" height="110%">
      <feDropShadow dx="0" dy="2" stdDeviation="3" flood-color="#000000" flood-opacity="0.4" />
    </filter>
    <filter id="titleGlow" x="-20%" y="-20%" width="140%" height="140%">
      <feGaussianBlur in="SourceAlpha" stdDeviation="4" result="blur" />
      <feFlood flood-color="#94a3b8" flood-opacity="0.25" result="color" />
      <feComposite in="color" in2="blur" operator="in" result="glow" />
      <feMerge>
        <feMergeNode in="glow" />
        <feMergeNode in="SourceGraphic" />
      </feMerge>
    </filter>

    <!-- Terminal glow -->
    <filter id="termGlow" x="-10%" y="-10%" width="120%" height="120%">
      <feGaussianBlur in="SourceAlpha" stdDeviation="12" result="blur" />
      <feFlood flood-color="#94a3b8" flood-opacity="0.15" result="color" />
      <feComposite in="color" in2="blur" operator="in" result="glow" />
      <feMerge>
        <feMergeNode in="glow" />
        <feMergeNode in="SourceGraphic" />
      </feMerge>
    </filter>

    <!-- Progress gradients -->
    
    <linearGradient id="progressGradLow" x1="0%" y1="0%" x2="100%" y2="0%">
      <stop offset="0%" stop-color="#a6e3a1" />
      <stop offset="100%" stop-color="#cdd6f4" />
    </linearGradient>
    <linearGradient id="progressGradMid" x1="0%" y1="0%" x2="100%" y2="0%">
      <stop offset="0%" stop-color="#f9e2af" />
      <stop offset="100%" stop-color="#cdd6f4" />
    </linearGradient>
    <linearGradient id="progressGradHigh" x1="0%" y1="0%" x2="100%" y2="0%">
      <stop offset="0%" stop-color="#f38ba8" />
      <stop offset="100%" stop-color="#cdd6f4" />
    </linearGradient>
  </defs>

  <!-- Base background -->
  <rect width="1200" height="630" fill="url(#bg)" />
  <rect width="1200" height="630" fill="url(#grid)" />
  <rect width="1200" height="630" fill="url(#dots)" />

  <!-- Vignette + key light -->
  <rect width="1200" height="630" fill="url(#vignette)" pointer-events="none" />
  <rect width="1200" height="630" fill="url(#keyLight)" pointer-events="none" />

  <!-- Watermark (single, rotating vector) -->
  <g transform="translate(740.00, 430.00) scale(0.8)" opacity="0.45">
    <g>
      <animateTransform attributeName="transform" type="rotate"
        from="0 100.00 100.00" to="360 100.00 100.00"
        dur="30s" repeatCount="indefinite" />
      <defs>
    <filter id="glow">
      <feGaussianBlur stdDeviation="2.5" result="blur"/>
      <feMerge>
        <feMergeNode in="blur"/>
        <feMergeNode in="SourceGraphic"/>
      </feMerge>
    </filter>
    <pattern id="stripes" patternUnits="userSpaceOnUse" width="6" height="6">
      <rect width="6" height="3" fill="#00ccff"/>
      <rect y="3" width="6" height="3" fill="transparent"/>
    </pattern>
    <clipPath id="topHalf"><rect x="0" y="0" width="200" height="85"/></clipPath>
    <clipPath id="bottomHalf"><rect x="0" y="115" width="200" height="85"/></clipPath>
  </defs>
  <circle cx="100" cy="100" r="90" fill="none" stroke="#00ccff" stroke-opacity="0.6" stroke-width="2" filter="url(#glow)"/>
  <circle cx="100" cy="100" r="90" fill="url(#stripes)" clip-path="url(#topHalf)"/>
  <circle cx="100" cy="100" r="90" fill="#00ccff" clip-path="url(#bottomHalf)"/>
  <line x1="40" y1="92" x2="160" y2="92" stroke="#00ccff" stroke-opacity="0.7" stroke-width="1" filter="url(#glow)"/>
  <line x1="40" y1="108" x2="160" y2="108" stroke="#00ccff" stroke-opacity="0.7" stroke-width="1" filter="url(#glow)"/>
  <text x="100" y="100" text-anchor="middle" dominant-baseline="middle" font-family="monospace" font-size="14" fill="#00ccff" filter="url(#glow)">MOSAID Tutorials</text>
    </g>
  </g>

  <!-- Floating geometry -->
  <g opacity="0.1">
    <circle cx="100" cy="570" r="8" fill="none" stroke="#94a3b8" stroke-width="2">
      <animateTransform attributeName="transform" type="translate" values="0,0; 0,-8; 0,0" dur="6s" repeatCount="indefinite" />
    </circle>
    <circle cx="1150" cy="130" r="12" fill="none" stroke="#94a3b8" stroke-width="1.5">
      <animateTransform attributeName="transform" type="translate" values="0,0; 0,10; 0,0" dur="7s" repeatCount="indefinite" />
    </circle>
    <polygon points="560,80 570,100 550,110" fill="none" stroke="#94a3b8" stroke-width="1">
      <animateTransform attributeName="transform" type="rotate" values="0 560 95; 10 560 95; 0 560 95" dur="10s" repeatCount="indefinite" />
    </polygon>
  </g>

  <!-- Decorative bracket -->
  <g opacity="0.08" fill="none" stroke="#f5c2e7" stroke-width="4" font-family="'JetBrains Mono', monospace" font-size="90" font-weight="bold">
    <text x="980" y="550" fill="#f5c2e7" stroke="none">&#123; &#125;
      <animate attributeName="opacity" values="0.6; 1; 0.6" dur="6s" repeatCount="indefinite" />
    </text>
  </g>
  <rect width="1200" height="630" fill="url(#scanlines)" pointer-events="none" />
  <!-- Title block -->
  <text x="85" y="120" font-family="'Inter', 'Helvetica Neue', sans-serif" font-size="44" fill="url(#titleGrad)" font-weight="800"  text-anchor="start" opacity="0.3" filter="url(#titleGlow)">Git Mastery</text>
  <text x="85" y="120" font-family="'Inter', 'Helvetica Neue', sans-serif" font-size="44" fill="url(#titleGrad)" font-weight="800"  text-anchor="start" filter="url(#titleShadow)">Git Mastery</text>
  <rect x="85" y="149" width="360" height="3" rx="1.5" fill="url(#titleGrad)" opacity="0.35" filter="url(#titleGlow)" />
  <text x="85" y="188" font-family="'Inter', 'Helvetica Neue', sans-serif" font-size="16" fill="#a6adc8" font-weight="600"  text-anchor="start" >Branching strategies and collaborative workflows</text>
  <!-- Meta & progress -->
  <text x="85" y="252" font-family="'JetBrains Mono', 'SF Mono', monospace" font-size="22" fill="#6c7086" font-weight="600" text-anchor="start">Article 4 · Version Control</text>
  <rect x="85" y="277" width="560" height="6" rx="3" fill="#313244" />
  <rect x="85" y="277" width="280" height="6" rx="3" fill="url(#progressGradMid)" />
  <text x="85" y="301" font-family="'JetBrains Mono', monospace" font-size="13" fill="#6c7086">Part 4 of 8</text>

  <!-- Separator & tagline -->
  <line x1="85" y1="527" x2="645" y2="527" stroke="#45475a" stroke-width="0.5" opacity="0.5" />
  <text x="85" y="548" font-family="'Inter', sans-serif" font-size="16"
        fill="#6c7086" font-style="italic" text-anchor="start">
    Stop fearing merge conflicts
  </text>

    <!-- Terminal window -->
    <g filter="url(#termGlow)">
        <rect x="700" y="80" width="440" height="206" rx="12" fill="#1e1e2e" fill-opacity="0.92" stroke="#313244" stroke-width="2" />
        <rect x="700" y="80" width="440" height="32" rx="12" fill="#45475a" />
        <rect x="700" y="92" width="440" height="20" fill="#45475a" />
        <circle cx="718" cy="96" r="6" fill="#f38ba8" />
        <circle cx="738" cy="96" r="6" fill="#fab387" />
        <circle cx="758" cy="96" r="6" fill="#a6e3a1" />
        <text x="920" y="100" font-family="'Inter', 'Helvetica Neue', sans-serif" font-size="12" fill="#a6adc8" text-anchor="middle" font-weight="500">Terminal — mosaid@mosaid-pc pelican-dev</text>

        <line x1="720" y1="122" x2="720" y2="256" stroke="#45475a" stroke-width="1" opacity="0.3" />

        <text x="718" y="132" font-family="'JetBrains Mono', monospace" font-size="14" fill="#585b70" opacity="0.6" text-anchor="end">1</text><text x="735" y="132" font-family="'JetBrains Mono', 'SF Mono', 'Fira Code', monospace" font-size="18" fill="#a6adc8" xml:space="preserve"><tspan font-weight="bold" fill="#94e2d5">$</tspan> <tspan fill="#a6e3a1" font-weight="bold">git</tspan> <tspan fill="#a6adc8" >checkout</tspan> <tspan fill="#94e2d5" >-b</tspan> <tspan fill="#a6adc8" >feature/new-docs</tspan></text><text x="718" y="160" font-family="'JetBrains Mono', monospace" font-size="14" fill="#585b70" opacity="0.6" text-anchor="end">2</text><text x="735" y="160" font-family="'JetBrains Mono', 'SF Mono', 'Fira Code', monospace" font-size="18" fill="#a6adc8" xml:space="preserve"><tspan font-weight="bold" fill="#94e2d5">$</tspan> <tspan fill="#a6e3a1" font-weight="bold">git</tspan> <tspan fill="#a6adc8" >add</tspan> <tspan fill="#f5c2e7" >.</tspan> <tspan fill="#a6adc8" >&amp;&amp;</tspan> <tspan fill="#a6e3a1" font-weight="bold">git</tspan> <tspan fill="#a6adc8" >commit</tspan> <tspan fill="#94e2d5" >-m</tspan> <tspan fill="#a6adc8" >'Add</tspan></text><text x="756" y="182" font-family="'JetBrains Mono', 'SF Mono', 'Fira Code', monospace" font-size="18" fill="#a6adc8" xml:space="preserve"><tspan fill="#a6adc8" >docs'</tspan></text><text x="718" y="210" font-family="'JetBrains Mono', monospace" font-size="14" fill="#585b70" opacity="0.6" text-anchor="end">3</text><text x="735" y="210" font-family="'JetBrains Mono', 'SF Mono', 'Fira Code', monospace" font-size="18" fill="#a6adc8" xml:space="preserve"><tspan font-weight="bold" fill="#94e2d5">$</tspan> <tspan fill="#a6e3a1" font-weight="bold">git</tspan> <tspan fill="#a6adc8" >push</tspan> <tspan fill="#a6adc8" >origin</tspan> <tspan fill="#a6adc8" >feature/new-docs</tspan></text><text x="718" y="238" font-family="'JetBrains Mono', monospace" font-size="14" fill="#585b70" opacity="0.6" text-anchor="end">4</text><text x="735" y="238" font-family="'JetBrains Mono', 'SF Mono', 'Fira Code', monospace" font-size="18" fill="#cdd6f4" xml:space="preserve"><tspan font-weight="bold" fill="#94e2d5">$</tspan> <tspan fill="#a6adc8" >gh</tspan> <tspan fill="#a6adc8" >pr</tspan> <tspan fill="#a6adc8" >create</tspan> <tspan fill="#94e2d5" >--fill</tspan> <tspan fill="#f6a2d2" font-weight="bold"><animate attributeName="opacity" values="1;0;1" dur="0.8s" repeatCount="indefinite" />█</tspan></text>
        
        <rect x="1124" y="116" width="6" height="166" rx="3" fill="#45475a" opacity="0.3" /><rect x="1125" y="121" width="4" height="132.8" rx="2" fill="#6c7086" opacity="0.5" />
    </g>
<text x="85" y="292" font-family="'JetBrains Mono', monospace" font-size="13" fill="#50fa7b" font-weight="bold"> main</text>
<text x="85" y="314" font-family="'JetBrains Mono', monospace" font-size="13" fill="#a6adc8">a1b2c3d Add banner generator</text>
<text x="85" y="336" font-family="'JetBrains Mono', monospace" font-size="13" fill="#a6adc8">e4f5g6h Fix theme loading</text>
<text x="85" y="358" font-family="'JetBrains Mono', monospace" font-size="13" fill="#a6adc8">i7j8k9l Update README</text>
<text x="85" y="380" font-family="'JetBrains Mono', monospace" font-size="13" fill="#a6adc8">m0n1p2q Merge pull request #42</text>

  <!-- Series badge -->
  <rect x="85" y="25" width="220" height="36" rx="18"
        fill="#313244" opacity="0.8" stroke="#94a3b8" stroke-width="1.5" />
  <text x="97.0" y="43.0" font-family="'Inter', 'Helvetica Neue', sans-serif"
        font-size="16" fill="#cdd6f4" font-weight="600"
        text-anchor="start" dominant-baseline="central" letter-spacing="1.5">GIT WORKFLOWS</text>

  <!-- Status badges -->
  <rect x="230" y="579" width="37.599999999999994" height="28" rx="4" fill="#313244" opacity="0.7" stroke="#94a3b8" stroke-width="1" />
  <text x="248.8" y="593.0" text-anchor="middle" dominant-baseline="central" font-family="'JetBrains Mono', monospace" font-size="12" fill="#cdd6f4">git</text>
  <rect x="275.6" y="579" width="116.79999999999998" height="28" rx="4" fill="#313244" opacity="0.7" stroke="#94a3b8" stroke-width="1" />
  <text x="334.0" y="593.0" text-anchor="middle" dominant-baseline="central" font-family="'JetBrains Mono', monospace" font-size="12" fill="#cdd6f4">github-actions</text>
  <rect x="400.4" y="579" width="95.19999999999999" height="28" rx="4" fill="#313244" opacity="0.7" stroke="#94a3b8" stroke-width="1" />
  <text x="448.0" y="593.0" text-anchor="middle" dominant-baseline="central" font-family="'JetBrains Mono', monospace" font-size="12" fill="#cdd6f4">open-source</text>
  <!-- Social icons -->
  <svg x="85" y="578.0" width="24" height="24" viewBox="0 0 24 24" fill="#94a3b8" opacity="0.8"><path d="M12 0C5.37 0 0 5.37 0 12c0 5.3 3.438 9.8 8.205 11.387.6.113.82-.258.82-.577 0-.285-.01-1.04-.015-2.04-3.338.724-4.042-1.61-4.042-1.61-.546-1.387-1.333-1.757-1.333-1.757-1.09-.745.083-.73.083-.73 1.205.085 1.838 1.236 1.838 1.236 1.07 1.835 2.809 1.305 3.495.998.108-.776.418-1.305.762-1.604-2.665-.3-5.466-1.332-5.466-5.93 0-1.31.465-2.38 1.235-3.22-.135-.303-.54-1.523.105-3.176 0 0 1.005-.322 3.3 1.23.96-.267 1.98-.399 3-.405 1.02.006 2.04.138 3 .405 2.28-1.552 3.285-1.23 3.285-1.23.645 1.653.24 2.873.12 3.176.765.84 1.23 1.91 1.23 3.22 0 4.61-2.805 5.625-5.475 5.92.42.36.81 1.096.81 2.22 0 1.606-.015 2.896-.015 3.286 0 .315.21.69.825.57C20.565 21.795 24 17.295 24 12c0-6.63-5.37-12-12-12z"/></svg>
  <svg x="121" y="578.0" width="24" height="24" viewBox="0 0 24 24" fill="#94a3b8" opacity="0.8"><path d="M23.643 4.937c-.835.37-1.732.62-2.675.733.962-.576 1.7-1.49 2.048-2.578-.9.534-1.897.922-2.958 1.13-.85-.904-2.06-1.47-3.4-1.47-2.572 0-4.658 2.086-4.658 4.66 0 .364.042.718.12 1.06-3.873-.195-7.304-2.05-9.602-4.868-.4.69-.63 1.49-.63 2.342 0 1.616.823 3.043 2.072 3.878-.764-.025-1.482-.234-2.11-.583v.06c0 2.257 1.605 4.14 3.737 4.568-.392.106-.803.162-1.227.162-.3 0-.593-.028-.877-.082.593 1.85 2.313 3.198 4.352 3.234-1.595 1.25-3.604 1.995-5.786 1.995-.376 0-.747-.022-1.112-.065 2.062 1.323 4.51 2.093 7.14 2.093 8.57 0 13.255-7.098 13.255-13.254 0-.2-.005-.402-.014-.602.91-.658 1.7-1.477 2.323-2.41z"/></svg>
  <svg x="157" y="578.0" width="24" height="24" viewBox="0 0 24 24" fill="#94a3b8" opacity="0.8"><path d="M23.5 6.19a3.02 3.02 0 00-2.12-2.14C19.48 3.5 12 3.5 12 3.5s-7.48 0-9.38.55A3.02 3.02 0 00.5 6.19 32.39 32.39 0 000 12a32.39 32.39 0 00.5 5.81 3.02 3.02 0 002.12 2.14c1.9.55 9.38.55 9.38.55s7.48 0 9.38-.55a3.02 3.02 0 002.12-2.14 32.39 32.39 0 00.5-5.81 32.39 32.39 0 00-.5-5.81zM9.54 15.57V8.43L15.82 12l-6.28 3.57z"/></svg>

    <!-- Credits -->
    <text x="1170" y="580" font-family="'Inter', 'Helvetica Neue', sans-serif" font-size="18"
            fill="#6c7086" font-weight="600" text-anchor="end">MOSAID Tutorials</text>
    <text x="1170" y="600" font-family="'JetBrains Mono', 'Fira Code', monospace" font-size="14"
            fill="#6c7086" text-anchor="end" opacity="0.8">mosaid.xyz</text>
</svg>