<?xml version="1.0" encoding="UTF-8"?>
<svg xmlns="http://www.w3.org/2000/svg" viewBox="0 0 1200 630" preserveAspectRatio="xMidYMid meet" width="1200" height="630">
  <defs>
<!-- Background gradients -->
    <linearGradient id="bg" x1="0%" y1="0%" x2="100%" y2="100%">
      <stop offset="0%" stop-color="#282a36" />
      <stop offset="50%" stop-color="#44475a" />
      <stop offset="100%" stop-color="#282a36" />
    </linearGradient>
    <radialGradient id="vignette" cx="50%" cy="50%" r="70%">
      <stop offset="50%" stop-color="#000" stop-opacity="0" />
      <stop offset="100%" stop-color="#000" stop-opacity="0.35" />
    </radialGradient>
    <linearGradient id="keyLight" x1="0%" y1="0%" x2="100%" y2="100%">
      <stop offset="0%" stop-color="#ffffff" stop-opacity="0.06" />
      <stop offset="100%" stop-color="#000000" stop-opacity="0" />
    </linearGradient>

    <!-- Patterns -->
    <pattern id="dots" x="0" y="0" width="20" height="20" patternUnits="userSpaceOnUse">
      <circle cx="2" cy="2" r="1" fill="#50fa7b" opacity="0.12" />
    </pattern>
    <pattern id="grid" x="0" y="0" width="30" height="30" patternUnits="userSpaceOnUse">
      <path d="M 30 0 L 0 0 0 30" fill="none" stroke="#50fa7b" stroke-width="0.5" opacity="0.06" />
    </pattern>
    <pattern id="scanlines" width="4" height="4" patternUnits="userSpaceOnUse">
      <line x1="0" y1="2" x2="4" y2="2" stroke="#ffffff" stroke-width="1" opacity="0.03" />
    </pattern>

    <!-- Title gradient & filters -->
    <linearGradient id="titleGrad" x1="0%" y1="0%" x2="100%" y2="0%">
      <stop offset="0%" stop-color="#f8f8f2" />
      <stop offset="50%" stop-color="#f1fa8c" />
      <stop offset="100%" stop-color="#50fa7b" />
    </linearGradient>
    <filter id="titleShadow" x="-5%" y="-5%" width="110%" height="110%">
      <feDropShadow dx="0" dy="2" stdDeviation="3" flood-color="#000000" flood-opacity="0.4" />
    </filter>
    <filter id="titleGlow" x="-20%" y="-20%" width="140%" height="140%">
      <feGaussianBlur in="SourceAlpha" stdDeviation="4" result="blur" />
      <feFlood flood-color="#94a3b8" flood-opacity="0.25" result="color" />
      <feComposite in="color" in2="blur" operator="in" result="glow" />
      <feMerge>
        <feMergeNode in="glow" />
        <feMergeNode in="SourceGraphic" />
      </feMerge>
    </filter>

    <!-- Terminal glow -->
    <filter id="termGlow" x="-10%" y="-10%" width="120%" height="120%">
      <feGaussianBlur in="SourceAlpha" stdDeviation="12" result="blur" />
      <feFlood flood-color="#94a3b8" flood-opacity="0.15" result="color" />
      <feComposite in="color" in2="blur" operator="in" result="glow" />
      <feMerge>
        <feMergeNode in="glow" />
        <feMergeNode in="SourceGraphic" />
      </feMerge>
    </filter>

    <!-- Progress gradients -->
    
    <linearGradient id="progressGradLow" x1="0%" y1="0%" x2="100%" y2="0%">
      <stop offset="0%" stop-color="#50fa7b" />
      <stop offset="100%" stop-color="#f1fa8c" />
    </linearGradient>
    <linearGradient id="progressGradMid" x1="0%" y1="0%" x2="100%" y2="0%">
      <stop offset="0%" stop-color="#f1fa8c" />
      <stop offset="100%" stop-color="#f1fa8c" />
    </linearGradient>
    <linearGradient id="progressGradHigh" x1="0%" y1="0%" x2="100%" y2="0%">
      <stop offset="0%" stop-color="#ff5555" />
      <stop offset="100%" stop-color="#f1fa8c" />
    </linearGradient>
  </defs>

  <!-- Base background -->
  <rect width="1200" height="630" fill="url(#bg)" />
  <rect width="1200" height="630" fill="url(#grid)" />
  <rect width="1200" height="630" fill="url(#dots)" />

  <!-- Vignette + key light -->
  <rect width="1200" height="630" fill="url(#vignette)" pointer-events="none" />
  <rect width="1200" height="630" fill="url(#keyLight)" pointer-events="none" />

  <!-- Watermark (single, rotating vector) -->
  <g transform="translate(760.00, 450.00) scale(0.7)" opacity="0.35">
    <g>
      <animateTransform attributeName="transform" type="rotate"
        from="0 100.00 100.00" to="360 100.00 100.00"
        dur="40s" repeatCount="indefinite" />
      <defs>
    <filter id="glow">
      <feGaussianBlur stdDeviation="2.5" result="blur"/>
      <feMerge>
        <feMergeNode in="blur"/>
        <feMergeNode in="SourceGraphic"/>
      </feMerge>
    </filter>
    <pattern id="stripes" patternUnits="userSpaceOnUse" width="6" height="6">
      <rect width="6" height="3" fill="#00ccff"/>
      <rect y="3" width="6" height="3" fill="transparent"/>
    </pattern>
    <clipPath id="topHalf"><rect x="0" y="0" width="200" height="85"/></clipPath>
    <clipPath id="bottomHalf"><rect x="0" y="115" width="200" height="85"/></clipPath>
  </defs>
  <circle cx="100" cy="100" r="90" fill="none" stroke="#00ccff" stroke-opacity="0.6" stroke-width="2" filter="url(#glow)"/>
  <circle cx="100" cy="100" r="90" fill="url(#stripes)" clip-path="url(#topHalf)"/>
  <circle cx="100" cy="100" r="90" fill="#00ccff" clip-path="url(#bottomHalf)"/>
  <line x1="40" y1="92" x2="160" y2="92" stroke="#00ccff" stroke-opacity="0.7" stroke-width="1" filter="url(#glow)"/>
  <line x1="40" y1="108" x2="160" y2="108" stroke="#00ccff" stroke-opacity="0.7" stroke-width="1" filter="url(#glow)"/>
  <text x="100" y="100" text-anchor="middle" dominant-baseline="middle" font-family="monospace" font-size="14" fill="#00ccff" filter="url(#glow)">MOSAID Tutorials</text>
    </g>
  </g>

  <!-- Code rain -->
  <g opacity="0.03" font-family="'JetBrains Mono', monospace" font-size="16" fill="#f8f8f2">
    <text x="50" y="180">def build():</text>
    <text x="230" y="260">&lt;html&gt;</text>
    <text x="500" y="210">import pelican</text>
    <text x="180" y="510">class Site</text>
    <text x="850" y="590">git commit</text>
    <text x="1050" y="170">pip install</text>
    <text x="300" y="560">yaml.load</text>
  </g>

  <!-- Floating geometry -->
  <g opacity="0.1">
    <circle cx="100" cy="570" r="8" fill="none" stroke="#50fa7b" stroke-width="2">
      <animateTransform attributeName="transform" type="translate" values="0,0; 0,-8; 0,0" dur="6s" repeatCount="indefinite" />
    </circle>
    <circle cx="1150" cy="130" r="12" fill="none" stroke="#50fa7b" stroke-width="1.5">
      <animateTransform attributeName="transform" type="translate" values="0,0; 0,10; 0,0" dur="7s" repeatCount="indefinite" />
    </circle>
    <polygon points="560,80 570,100 550,110" fill="none" stroke="#50fa7b" stroke-width="1">
      <animateTransform attributeName="transform" type="rotate" values="0 560 95; 10 560 95; 0 560 95" dur="10s" repeatCount="indefinite" />
    </polygon>
  </g>
  <rect width="1200" height="630" fill="url(#scanlines)" pointer-events="none" />
  <!-- Title block -->
  <text x="85" y="120" font-family="'Inter', 'Helvetica Neue', sans-serif" font-size="44" fill="url(#titleGrad)" font-weight="800"  text-anchor="start" opacity="0.3" filter="url(#titleGlow)">Build Your Homelab From</text>
  <text x="85" y="120" font-family="'Inter', 'Helvetica Neue', sans-serif" font-size="44" fill="url(#titleGrad)" font-weight="800"  text-anchor="start" filter="url(#titleShadow)">Build Your Homelab From</text>
  <text x="85" y="168" font-family="'Inter', 'Helvetica Neue', sans-serif" font-size="44" fill="url(#titleGrad)" font-weight="800"  text-anchor="start" opacity="0.3" filter="url(#titleGlow)">Scratch</text>
  <text x="85" y="168" font-family="'Inter', 'Helvetica Neue', sans-serif" font-size="44" fill="url(#titleGrad)" font-weight="800"  text-anchor="start" filter="url(#titleShadow)">Scratch</text>
  <rect x="85" y="197" width="360" height="3" rx="1.5" fill="url(#titleGrad)" opacity="0.35" filter="url(#titleGlow)" />
  <text x="85" y="236" font-family="'Inter', 'Helvetica Neue', sans-serif" font-size="16" fill="#bd93f9" font-weight="600"  text-anchor="start" >A practical guide to self‑hosting services on bare metal</text>
  <!-- Meta & progress -->
  <text x="85" y="300" font-family="'JetBrains Mono', 'SF Mono', monospace" font-size="22" fill="#6272a4" font-weight="600" text-anchor="start">Article 5 · Homelab Infrastructure</text>
  <rect x="85" y="325" width="560" height="6" rx="3" fill="#44475a" />
  <rect x="85" y="325" width="233" height="6" rx="3" fill="url(#progressGradMid)" />
  <text x="85" y="349" font-family="'JetBrains Mono', monospace" font-size="13" fill="#6272a4">Part 5 of 12</text>

  <!-- Separator & tagline -->
  <line x1="85" y1="527" x2="645" y2="527" stroke="#6272a4" stroke-width="0.5" opacity="0.5" />
  <text x="85" y="548" font-family="'Inter', sans-serif" font-size="16"
        fill="#6272a4" font-style="italic" text-anchor="start">
    Your own cloud, your own rules
  </text>

    <!-- Terminal window -->
    <g filter="url(#termGlow)">
        <rect x="700" y="80" width="440" height="239" rx="12" fill="#282a36" fill-opacity="0.92" stroke="#44475a" stroke-width="2" />
        <rect x="700" y="80" width="440" height="32" rx="12" fill="#44475a" />
        <rect x="700" y="92" width="440" height="20" fill="#44475a" />
        <circle cx="718" cy="96" r="6" fill="#ff5555" />
        <circle cx="738" cy="96" r="6" fill="#ffb86c" />
        <circle cx="758" cy="96" r="6" fill="#50fa7b" />
        <text x="920" y="100" font-family="'Inter', 'Helvetica Neue', sans-serif" font-size="12" fill="#f8f8f2" text-anchor="middle" font-weight="500">Terminal — mosaid@mosaid-pc pelican-dev</text>

        <line x1="720" y1="122" x2="720" y2="289" stroke="#45475a" stroke-width="1" opacity="0.3" />

        <text x="718" y="132" font-family="'JetBrains Mono', monospace" font-size="14" fill="#6272a4" opacity="0.6" text-anchor="end">1</text><text x="735" y="132" font-family="'JetBrains Mono', 'SF Mono', 'Fira Code', monospace" font-size="18" fill="#f8f8f2" xml:space="preserve"><tspan font-weight="bold" fill="#ff79c6">$</tspan> <tspan fill="#f8f8f2" >ssh</tspan> <tspan fill="#f8f8f2" >mosaid@homelab</tspan></text><text x="718" y="160" font-family="'JetBrains Mono', monospace" font-size="14" fill="#6272a4" opacity="0.6" text-anchor="end">2</text><text x="735" y="160" font-family="'JetBrains Mono', 'SF Mono', 'Fira Code', monospace" font-size="18" fill="#f8f8f2" xml:space="preserve"><tspan font-weight="bold" fill="#ff79c6">$</tspan> <tspan fill="#50fa7b" font-weight="bold">sudo</tspan> <tspan fill="#50fa7b" font-weight="bold">apt</tspan> <tspan fill="#ffb86c" >update</tspan> <tspan fill="#f8f8f2" >&amp;&amp;</tspan> <tspan fill="#50fa7b" font-weight="bold">sudo</tspan> <tspan fill="#50fa7b" font-weight="bold">apt</tspan> <tspan fill="#f8f8f2" >upgrade</tspan></text><text x="756" y="182" font-family="'JetBrains Mono', 'SF Mono', 'Fira Code', monospace" font-size="18" fill="#f8f8f2" xml:space="preserve"><tspan fill="#8be9fd" >-y</tspan></text><text x="718" y="210" font-family="'JetBrains Mono', monospace" font-size="14" fill="#6272a4" opacity="0.6" text-anchor="end">3</text><text x="735" y="210" font-family="'JetBrains Mono', 'SF Mono', 'Fira Code', monospace" font-size="18" fill="#f8f8f2" xml:space="preserve"><tspan font-weight="bold" fill="#ff79c6">$</tspan> <tspan fill="#50fa7b" font-weight="bold">docker</tspan> <tspan fill="#f8f8f2" >compose</tspan> <tspan fill="#f8f8f2" >up</tspan> <tspan fill="#8be9fd" >-d</tspan></text><text x="718" y="238" font-family="'JetBrains Mono', monospace" font-size="14" fill="#6272a4" opacity="0.6" text-anchor="end">4</text><text x="735" y="238" font-family="'JetBrains Mono', 'SF Mono', 'Fira Code', monospace" font-size="18" fill="#cdd6f4" xml:space="preserve"><tspan font-weight="bold" fill="#ff79c6">$</tspan> <tspan fill="#f8f8f2" >nginx</tspan> <tspan fill="#8be9fd" >-t</tspan> <tspan fill="#f8f8f2" >&amp;&amp;</tspan> <tspan fill="#f8f8f2" >systemctl</tspan> <tspan fill="#f8f8f2" >reload</tspan> <tspan fill="#f8f8f2" >nginx</tspan> <tspan fill="#ffb86c" font-weight="bold"><animate attributeName="opacity" values="1;0;1" dur="0.8s" repeatCount="indefinite" />█</tspan></text>
        <text x="735" y="271" font-family="'JetBrains Mono', 'SF Mono', monospace" font-size="16" fill="#f1fa8c" opacity="0.9">➜ Serving at http://localhost:8000<tspan fill="#ffb86c" font-weight="bold"><animate attributeName="opacity" values="1;0;1" dur="1s" repeatCount="indefinite" />█</tspan></text>
        <rect x="1124" y="116" width="6" height="199" rx="3" fill="#45475a" opacity="0.3" /><rect x="1125" y="121" width="4" height="159.20000000000002" rx="2" fill="#6c7086" opacity="0.5" />
    </g>
<!-- Neofetch-style system info -->

<rect x="55" y="290" width="520" height="220" rx="12"
fill="#0b0f14" opacity="0.85"/>


<g transform="translate(85,340) scale(0.9)">

<g>
  <path d="M60 10 L110 120 L10 120 Z" fill="#1793d1"/>
  <path d="M60 45 L85 95 L35 95 Z" fill="#0a0f14" opacity="0.6"/>
</g>

</g>


<text x="265" y="330"
font-family="JetBrains Mono, monospace"
font-size="18"
fill="#89b4fa">
System Information
</text>


<text x="265" y="350"
font-family="JetBrains Mono, monospace"
font-size="16"
fill="#6272a4">
OS:
</text>

<text x="375" y="350"
font-family="JetBrains Mono, monospace"
font-size="16"
fill="#cdd6f4">
Debian 12
</text>


<text x="265" y="376"
font-family="JetBrains Mono, monospace"
font-size="16"
fill="#6272a4">
Kernel:
</text>

<text x="375" y="376"
font-family="JetBrains Mono, monospace"
font-size="16"
fill="#cdd6f4">
6.1.0
</text>


<text x="265" y="402"
font-family="JetBrains Mono, monospace"
font-size="16"
fill="#6272a4">
Uptime:
</text>

<text x="375" y="402"
font-family="JetBrains Mono, monospace"
font-size="16"
fill="#cdd6f4">
14 days
</text>


<text x="265" y="428"
font-family="JetBrains Mono, monospace"
font-size="16"
fill="#6272a4">
Shell:
</text>

<text x="375" y="428"
font-family="JetBrains Mono, monospace"
font-size="16"
fill="#cdd6f4">
zsh
</text>


<text x="265" y="454"
font-family="JetBrains Mono, monospace"
font-size="16"
fill="#6272a4">
Packages:
</text>

<text x="375" y="454"
font-family="JetBrains Mono, monospace"
font-size="16"
fill="#cdd6f4">
843 (apt)
</text>


  <!-- Bash prompt -->
  <text x="85" y="520" font-family="'JetBrains Mono', monospace" font-size="18" fill="#ffffff">
    <tspan fill="#50fa7b">user</tspan> <tspan fill="#ffffff">@</tspan> <tspan fill="#ff79c6">host</tspan> <tspan fill="#ffffff"> ~]$ </tspan> <tspan fill="#ffb86c" font-weight="bold">█</tspan>
  </text>
  <!-- Vector logo -->
  <g transform="translate(1050, 120) scale(2.2)" opacity="0.08">
  <filter id="asciiGlow" x="-20%" y="-20%" width="140%" height="140%"><feGaussianBlur in="SourceAlpha" stdDeviation="3" result="blur"/><feFlood flood-color="#f1fa8c" flood-opacity="0.3" result="color"/><feComposite in="color" in2="blur" operator="in" result="glow"/><feMerge><feMergeNode in="glow"/><feMergeNode in="SourceGraphic"/></feMerge></filter>
  <path d="M -50 -40 C -70 -10, -70 40, -30 70 C 0 90, 40 90, 70 70 C 100 40, 100 -10, 80 -40 C 65 -60, -35 -60, -50 -40 Z" fill="#f1fa8c" stroke="#f1fa8c" stroke-width="1.5" filter="url(#asciiGlow)" vector-effect="non-scaling-stroke" />
  <path d="M -30 -20 C -45 0, -45 30, -15 50 C 10 65, 30 65, 50 50 C 70 30, 70 0, 55 -20 C 45 -35, -20 -35, -30 -20 Z" fill="#f1fa8c" stroke="#f1fa8c" stroke-width="1.5" filter="url(#asciiGlow)" vector-effect="non-scaling-stroke" />
  <path d="M -15 -10 A 6 6 0 1 0 -15 -22 A 6 6 0 1 0 -15 -10" fill="#f1fa8c" stroke="#f1fa8c" stroke-width="1.5" filter="url(#asciiGlow)" vector-effect="non-scaling-stroke" />
  <path d="M 15 -10 A 6 6 0 1 0 15 -22 A 6 6 0 1 0 15 -10" fill="#f1fa8c" stroke="#f1fa8c" stroke-width="1.5" filter="url(#asciiGlow)" vector-effect="non-scaling-stroke" />
  <path d="M -5 -5 Q 0 -12 5 -5 Q 3 -3 0 -3 Q -3 -3 -5 -5" fill="#f1fa8c" stroke="#f1fa8c" stroke-width="1.5" filter="url(#asciiGlow)" vector-effect="non-scaling-stroke" />
  <path d="M -30 70 Q -45 85 -35 95 Q -20 85 -20 75 Q -25 70 -30 70" fill="#f1fa8c" stroke="#f1fa8c" stroke-width="1.5" filter="url(#asciiGlow)" vector-effect="non-scaling-stroke" />
  <path d="M 30 70 Q 45 85 35 95 Q 20 85 20 75 Q 25 70 30 70" fill="#f1fa8c" stroke="#f1fa8c" stroke-width="1.5" filter="url(#asciiGlow)" vector-effect="non-scaling-stroke" />
  </g>
  <!-- Package list -->
  <rect x="85" y="558" width="48.0" height="24" rx="6" fill="#44475a" opacity="0.8" stroke="#6272a4" stroke-width="1" />
  <text x="109.0" y="574.0" font-family="'JetBrains Mono', monospace" font-size="12" fill="#f8f8f2" text-anchor="middle">nginx</text>
  <rect x="141.0" y="558" width="55.199999999999996" height="24" rx="6" fill="#44475a" opacity="0.8" stroke="#6272a4" stroke-width="1" />
  <text x="168.6" y="574.0" font-family="'JetBrains Mono', monospace" font-size="12" fill="#f8f8f2" text-anchor="middle">docker</text>
  <rect x="204.2" y="558" width="33.599999999999994" height="24" rx="6" fill="#44475a" opacity="0.8" stroke="#6272a4" stroke-width="1" />
  <text x="221.0" y="574.0" font-family="'JetBrains Mono', monospace" font-size="12" fill="#f8f8f2" text-anchor="middle">ufw</text>
  <rect x="245.79999999999998" y="558" width="69.6" height="24" rx="6" fill="#44475a" opacity="0.8" stroke="#6272a4" stroke-width="1" />
  <text x="280.59999999999997" y="574.0" font-family="'JetBrains Mono', monospace" font-size="12" fill="#f8f8f2" text-anchor="middle">fail2ban</text>

  <!-- tux icon (fallback) -->
  <g transform="translate(95, 465) scale(1.2)" fill="#50fa7b" opacity="0.6">
    <path d="M12 3c-2.5 0-4.8 1.2-6.3 3.1-.8 1-1.2 2.2-1.2 3.5 0 1.5.7 2.8 1.8 3.7 1.2.9 2.8 1.2 4.5.9.5-.1 1-.3 1.5-.5.2-.1.3-.2.5-.2.2 0 .4.1.7.2 1.1.5 2.4.8 3.7.6 2-.2 3.5-1.3 4.3-2.9.2-.4.3-.8.3-1.2 0-.5-.2-1-.5-1.4-.3-.4-.7-.7-1.2-.9.4-.3.8-.7 1-1.2.2-.5.2-1.1 0-1.7-.3-.7-1-1.3-1.8-1.5-.3-.1-.7-.1-1 .1-.3.1-.6.3-.8.5-.2.3-.4.7-.4 1.1 0 .3.1.6.2.9.1.2.3.3.5.3.2 0 .4 0 .6-.1.1-.1.3-.2.3-.3.1-.2 0-.4-.1-.5-.1-.2-.2-.3-.4-.4-.3-.2-.6-.2-1 0-.3.2-.4.5-.3.8 0 .1.1.2.2.3.1.1.3.1.5.1h.2c-.3.7-1 1.2-1.8 1.3-1.1.2-2.1-.3-2.8-1.1-.3-.3-.5-.7-.5-1.2 0-.7.3-1.3.9-1.6.3-.2.7-.3 1.1-.3.5 0 1 .2 1.3.6.2.2.3.4.4.7-.1.1-.2.2-.4.3-.2.1-.4.1-.6 0-.2 0-.3-.1-.4-.3-.1-.1-.2-.3-.1-.5.1-.1.3-.2.5-.2.3 0 .5.2.6.5.1.3 0 .6-.2.8-.3.3-.8.5-1.3.4-.5 0-1-.3-1.3-.7-.3-.4-.4-.9-.3-1.4.1-.5.4-.9.8-1.1.5-.2 1-.3 1.6-.1.2.1.5.2.6.4.2.2.3.4.3.7 0 .4-.2.8-.5 1.1-.3.3-.8.4-1.3.4-.6 0-1.2-.2-1.6-.7-.3-.3-.4-.7-.5-1.1 0-.4.1-.8.4-1.1.2-.3.6-.4.9-.5.6-.1 1.2 0 1.7.3.4.3.7.7.8 1.2z" />
  </g>

  <!-- Series badge -->
  <rect x="85" y="25" width="220" height="36" rx="18"
        fill="#44475a" opacity="0.8" stroke="#50fa7b" stroke-width="1.5" />
  <text x="97.0" y="43.0" font-family="'Inter', 'Helvetica Neue', sans-serif"
        font-size="16" fill="#f8f8f2" font-weight="600"
        text-anchor="start" dominant-baseline="central" letter-spacing="1.5">HOMELAB ESSENTIALS</text>

  <!-- Status badges -->
  <rect x="230" y="579" width="95.19999999999999" height="28" rx="4" fill="#44475a" opacity="0.7" stroke="#50fa7b" stroke-width="1" />
  <text x="277.6" y="593.0" text-anchor="middle" dominant-baseline="central" font-family="'JetBrains Mono', monospace" font-size="12" fill="#f8f8f2">self-hosted</text>
  <rect x="333.2" y="579" width="138.39999999999998" height="28" rx="4" fill="#44475a" opacity="0.7" stroke="#50fa7b" stroke-width="1" />
  <text x="402.4" y="593.0" text-anchor="middle" dominant-baseline="central" font-family="'JetBrains Mono', monospace" font-size="12" fill="#f8f8f2">high‑availability</text>
  <rect x="479.59999999999997" y="579" width="59.199999999999996" height="28" rx="4" fill="#44475a" opacity="0.7" stroke="#50fa7b" stroke-width="1" />
  <text x="509.2" y="593.0" text-anchor="middle" dominant-baseline="central" font-family="'JetBrains Mono', monospace" font-size="12" fill="#f8f8f2">backup</text>
  <!-- Social icons -->
  <svg x="85" y="578.0" width="24" height="24" viewBox="0 0 24 24" fill="#94a3b8" opacity="0.8"><path d="M12 0C5.37 0 0 5.37 0 12c0 5.3 3.438 9.8 8.205 11.387.6.113.82-.258.82-.577 0-.285-.01-1.04-.015-2.04-3.338.724-4.042-1.61-4.042-1.61-.546-1.387-1.333-1.757-1.333-1.757-1.09-.745.083-.73.083-.73 1.205.085 1.838 1.236 1.838 1.236 1.07 1.835 2.809 1.305 3.495.998.108-.776.418-1.305.762-1.604-2.665-.3-5.466-1.332-5.466-5.93 0-1.31.465-2.38 1.235-3.22-.135-.303-.54-1.523.105-3.176 0 0 1.005-.322 3.3 1.23.96-.267 1.98-.399 3-.405 1.02.006 2.04.138 3 .405 2.28-1.552 3.285-1.23 3.285-1.23.645 1.653.24 2.873.12 3.176.765.84 1.23 1.91 1.23 3.22 0 4.61-2.805 5.625-5.475 5.92.42.36.81 1.096.81 2.22 0 1.606-.015 2.896-.015 3.286 0 .315.21.69.825.57C20.565 21.795 24 17.295 24 12c0-6.63-5.37-12-12-12z"/></svg>
  <svg x="121" y="578.0" width="24" height="24" viewBox="0 0 24 24" fill="#94a3b8" opacity="0.8"><path d="M23.643 4.937c-.835.37-1.732.62-2.675.733.962-.576 1.7-1.49 2.048-2.578-.9.534-1.897.922-2.958 1.13-.85-.904-2.06-1.47-3.4-1.47-2.572 0-4.658 2.086-4.658 4.66 0 .364.042.718.12 1.06-3.873-.195-7.304-2.05-9.602-4.868-.4.69-.63 1.49-.63 2.342 0 1.616.823 3.043 2.072 3.878-.764-.025-1.482-.234-2.11-.583v.06c0 2.257 1.605 4.14 3.737 4.568-.392.106-.803.162-1.227.162-.3 0-.593-.028-.877-.082.593 1.85 2.313 3.198 4.352 3.234-1.595 1.25-3.604 1.995-5.786 1.995-.376 0-.747-.022-1.112-.065 2.062 1.323 4.51 2.093 7.14 2.093 8.57 0 13.255-7.098 13.255-13.254 0-.2-.005-.402-.014-.602.91-.658 1.7-1.477 2.323-2.41z"/></svg>
  <svg x="157" y="578.0" width="24" height="24" viewBox="0 0 24 24" fill="#94a3b8" opacity="0.8"><path d="M23.5 6.19a3.02 3.02 0 00-2.12-2.14C19.48 3.5 12 3.5 12 3.5s-7.48 0-9.38.55A3.02 3.02 0 00.5 6.19 32.39 32.39 0 000 12a32.39 32.39 0 00.5 5.81 3.02 3.02 0 002.12 2.14c1.9.55 9.38.55 9.38.55s7.48 0 9.38-.55a3.02 3.02 0 002.12-2.14 32.39 32.39 0 00.5-5.81 32.39 32.39 0 00-.5-5.81zM9.54 15.57V8.43L15.82 12l-6.28 3.57z"/></svg>

    <!-- Credits -->
    <text x="1170" y="580" font-family="'Inter', 'Helvetica Neue', sans-serif" font-size="18"
            fill="#6272a4" font-weight="600" text-anchor="end">MOSAID Tutorials</text>
    <text x="1170" y="600" font-family="'JetBrains Mono', 'Fira Code', monospace" font-size="14"
            fill="#6272a4" text-anchor="end" opacity="0.8">mosaid.xyz</text>
</svg>